<svg width="482" height="192" viewBox="0 0 482 192" fill="none" xmlns="http://www.w3.org/2000/svg">
<rect width="482" height="192" fill="white"/>
<path d="M383.854 123.253V68.7466H395.278L410.436 112.8C410.286 111.207 410.112 109.34 409.913 107.2C409.764 105.01 409.639 102.795 409.54 100.555C409.44 98.2648 409.39 96.2737 409.39 94.5813V68.7466H417.902V123.253H406.478L391.47 79.1999C391.57 80.6435 391.694 82.3857 391.844 84.4266C391.993 86.4675 392.117 88.5581 392.217 90.6986C392.316 92.839 392.366 94.8052 392.366 96.5972V123.253H383.854Z" fill="#18191D"/>
<path d="M356.107 124C352.623 124 349.586 123.353 346.998 122.059C344.459 120.715 342.493 118.848 341.099 116.459C339.755 114.02 339.083 111.157 339.083 107.872V84.128C339.083 80.8427 339.755 78.0053 341.099 75.616C342.493 73.1769 344.459 71.3102 346.998 70.016C349.586 68.672 352.623 68 356.107 68C359.641 68 362.678 68.672 365.217 70.016C367.755 71.3102 369.697 73.1769 371.041 75.616C372.434 78.0053 373.131 80.8178 373.131 84.0533V107.872C373.131 111.157 372.434 114.02 371.041 116.459C369.697 118.848 367.755 120.715 365.217 122.059C362.678 123.353 359.641 124 356.107 124ZM356.107 115.787C358.646 115.787 360.562 115.115 361.857 113.771C363.151 112.377 363.798 110.411 363.798 107.872V84.128C363.798 81.5396 363.151 79.5733 361.857 78.2293C360.562 76.8853 358.646 76.2133 356.107 76.2133C353.569 76.2133 351.652 76.8853 350.358 78.2293C349.064 79.5733 348.417 81.5396 348.417 84.128V107.872C348.417 110.411 349.064 112.377 350.358 113.771C351.702 115.115 353.618 115.787 356.107 115.787Z" fill="#18191D"/>
<path d="M294.611 123.253V68.7466H311.859C315.493 68.7466 318.629 69.4186 321.267 70.7626C323.955 72.1066 326.046 73.9981 327.539 76.4372C329.032 78.8266 329.779 81.6639 329.779 84.9492C329.779 88.5332 328.858 91.6941 327.016 94.4319C325.224 97.1697 322.785 99.111 319.699 100.256L330.526 123.253H320.072L310.59 101.6H303.944V123.253H294.611ZM303.944 93.3866H311.859C314.497 93.3866 316.563 92.6648 318.056 91.2212C319.55 89.7777 320.296 87.7866 320.296 85.2479C320.296 82.6595 319.55 80.6435 318.056 79.1999C316.563 77.7066 314.497 76.9599 311.859 76.9599H303.944V93.3866Z" fill="#18191D"/>
<path d="M250.885 123.253V115.04H261.861V76.9599H250.885V68.7466H282.245V76.9599H271.27V115.04H282.245V123.253H250.885Z" fill="#18191D"/>
<path d="M205.144 123.253V68.7466H214.477V90.6239H229.112V68.7466H238.445V123.253H229.112V99.2852H214.477V123.253H205.144Z" fill="#18191D"/>
<path d="M177.323 124C173.838 124 170.777 123.353 168.139 122.059C165.55 120.715 163.534 118.848 162.091 116.459C160.697 114.02 160 111.157 160 107.872V84.128C160 80.7929 160.697 77.9307 162.091 75.5413C163.534 73.152 165.55 71.3102 168.139 70.016C170.777 68.672 173.838 68 177.323 68C180.857 68 183.893 68.672 186.432 70.016C189.02 71.3102 191.036 73.152 192.48 75.5413C193.924 77.9307 194.645 80.7929 194.645 84.128H185.237C185.237 81.5396 184.54 79.5733 183.147 78.2293C181.803 76.8853 179.861 76.2133 177.323 76.2133C174.784 76.2133 172.818 76.8853 171.424 78.2293C170.03 79.5733 169.333 81.5147 169.333 84.0533V107.872C169.333 110.411 170.03 112.377 171.424 113.771C172.818 115.115 174.784 115.787 177.323 115.787C179.861 115.787 181.803 115.115 183.147 113.771C184.54 112.377 185.237 110.411 185.237 107.872H194.645C194.645 111.108 193.924 113.945 192.48 116.384C191.036 118.823 189.02 120.715 186.432 122.059C183.893 123.353 180.857 124 177.323 124Z" fill="#18191D"/>
<g clip-path="url(#clip0_129_2)">
<path d="M85.3333 89.3333L95.9999 84L106.667 89.3333V96V102.667L95.9999 108L85.3333 102.667V96V89.3333Z" fill="#1D76F5"/>
<path d="M64 77.3333L96 64L128 77.3333V88L96 74.6667L64 88V77.3333Z" fill="#1D76F5"/>
<path d="M64 114.667L96 128L128 114.667V104L96 117.333L64 104V114.667Z" fill="#1D76F5"/>
</g>
<defs>
<clipPath id="clip0_129_2">
<rect width="64" height="64" fill="white" transform="translate(64 64)"/>
</clipPath>
</defs>
</svg>
